<?xml version="1.0" encoding="UTF-8"?>
<svg width="147px" height="64px" viewBox="0 0 147 64" version="1.1" xmlns="http://www.w3.org/2000/svg" xmlns:xlink="http://www.w3.org/1999/xlink">
    <!-- Generator: Sketch 51.3 (57544) - http://www.bohemiancoding.com/sketch -->
    <title>Jenkins</title>
    <desc>Created with Sketch.</desc>
    <defs></defs>
    <g id="Icons" stroke="none" stroke-width="1" fill="none" fill-rule="evenodd">
        <g id="LOGOS-Languages-and-Frameworks" transform="translate(-144.000000, -71.000000)">
            <g id="Jenkins" transform="translate(144.000000, 71.000000)">
                <path d="M63.438,33.696 C63.438,34.2513361 63.370334,34.7413312 63.235,35.166 C63.099666,35.5906688 62.9036679,35.9476652 62.647,36.237 C62.390332,36.5263348 62.0800018,36.7444993 61.716,36.8915 C61.3519982,37.0385007 60.9413356,37.112 60.484,37.112 C60.2739989,37.112 60.0616677,37.0956668 59.847,37.063 C59.6323323,37.0303332 59.4106678,36.9790003 59.182,36.909 C59.1866667,36.8436663 59.1925,36.7783337 59.1995,36.713 C59.2065,36.6476663 59.2146666,36.5823337 59.224,36.517 C59.2333334,36.4749998 59.2508332,36.4376668 59.2765,36.405 C59.3021668,36.3723332 59.3476663,36.356 59.413,36.356 C59.4550002,36.356 59.5051664,36.3641666 59.5635,36.3805 C59.6218336,36.3968334 59.6906663,36.4143332 59.77,36.433 C59.8493337,36.4516668 59.9426661,36.4691666 60.05,36.4855 C60.1573339,36.5018334 60.2809993,36.51 60.421,36.51 C60.7756684,36.51 61.0953319,36.4540006 61.38,36.342 C61.6646681,36.2299994 61.9073323,36.0585012 62.108,35.8275 C62.3086677,35.5964988 62.4614995,35.3048351 62.5665,34.9525 C62.6715005,34.6001649 62.724,34.1860024 62.724,33.71 L62.724,27.095 L63.438,27.095 L63.438,33.696 Z M74.549333,36.405 L74.535333,37 L68.599333,37 L68.599333,27.095 L74.535333,27.095 L74.535333,27.69 L69.320333,27.69 L69.320333,31.694 L73.660333,31.694 L73.660333,32.275 L69.320333,32.275 L69.320333,36.405 L74.549333,36.405 Z M86.696666,27.095 L86.696666,37 L86.360666,37 C86.299999,37 86.2498329,36.9895001 86.210166,36.9685 C86.1704991,36.9474999 86.1319995,36.9113336 86.094666,36.86 L79.661666,28.264 C79.6756661,28.4040007 79.682666,28.5369994 79.682666,28.663 L79.682666,37 L79.052666,37 L79.052666,27.095 L79.409666,27.095 C79.4749997,27.095 79.5251658,27.1031666 79.560166,27.1195 C79.5951662,27.1358334 79.6336658,27.1719997 79.675666,27.228 L86.094666,35.803 C86.0806659,35.6629993 86.073666,35.5300006 86.073666,35.404 L86.073666,27.095 L86.696666,27.095 Z M94.1992732,31.8839421 C94.198183,31.8836262 94.1970916,31.8833122 94.195999,31.883 L94.1992732,31.8839421 Z M94.1992732,31.8839421 C94.2959753,31.9119645 94.3835497,31.9548167 94.461999,32.0125 C94.5413327,32.0708336 94.6206653,32.1466662 94.699999,32.24 L99.256999,37 L98.675999,37 C98.5546651,37 98.4671659,36.9848335 98.413499,36.9545 C98.3598321,36.9241665 98.3073326,36.8763337 98.255999,36.811 L94.069999,32.527 C94.0186654,32.4756664 93.9708326,32.4313335 93.926499,32.394 C93.8821654,32.3566665 93.8331659,32.3251668 93.779499,32.2995 C93.7258321,32.2738332 93.6628327,32.2551667 93.590499,32.2435 C93.5181653,32.2318333 93.4259996,32.226 93.313999,32.226 L92.676999,32.226 L92.676999,37 L91.955999,37 L91.955999,27.095 L92.676999,27.095 L92.676999,31.666 L93.264999,31.666 C93.3536661,31.666 93.4306653,31.6625 93.495999,31.6555 C93.5613327,31.6485 93.6208321,31.6356668 93.674499,31.617 C93.7281659,31.5983332 93.7771654,31.5715002 93.821499,31.5365 C93.8658326,31.5014998 93.9136654,31.4583336 93.964999,31.407 L97.961999,27.298 C98.0319994,27.2186663 98.100832,27.1650001 98.168499,27.137 C98.236166,27.1089999 98.3166652,27.095 98.409999,27.095 L98.983999,27.095 L94.657999,31.54 C94.5693319,31.6333338 94.491166,31.7056664 94.423499,31.757 C94.3558338,31.8083323 94.2800034,31.850331 94.1960055,31.8829975 L94.1992732,31.8839421 Z M103.900332,37 L103.179332,37 L103.179332,27.095 L103.900332,27.095 L103.900332,37 Z M116.803665,27.095 L116.803665,37 L116.467665,37 C116.406998,37 116.356832,36.9895001 116.317165,36.9685 C116.277498,36.9474999 116.238999,36.9113336 116.201665,36.86 L109.768665,28.264 C109.782665,28.4040007 109.789665,28.5369994 109.789665,28.663 L109.789665,37 L109.159665,37 L109.159665,27.095 L109.516665,27.095 C109.581999,27.095 109.632165,27.1031666 109.667165,27.1195 C109.702165,27.1358334 109.740665,27.1719997 109.782665,27.228 L116.201665,35.803 C116.187665,35.6629993 116.180665,35.5300006 116.180665,35.404 L116.180665,27.095 L116.803665,27.095 Z M126.871998,28.299 C126.829998,28.3783337 126.769332,28.418 126.689998,28.418 C126.629331,28.418 126.551165,28.3748338 126.455498,28.2885 C126.359831,28.2021662 126.230332,28.1065005 126.066998,28.0015 C125.903664,27.8964995 125.699499,27.7996671 125.454498,27.711 C125.209497,27.6223329 124.907333,27.578 124.547998,27.578 C124.188663,27.578 123.872499,27.6293328 123.599498,27.732 C123.326497,27.8346672 123.097832,27.9746658 122.913498,28.152 C122.729164,28.3293342 122.589165,28.5346655 122.493498,28.768 C122.397831,29.0013345 122.349998,29.246332 122.349998,29.503 C122.349998,29.8390017 122.421164,30.1166656 122.563498,30.336 C122.705832,30.5553344 122.893664,30.7419992 123.126998,30.896 C123.360332,31.0500008 123.625163,31.1794995 123.921498,31.2845 C124.217833,31.3895005 124.52233,31.4933328 124.834998,31.596 C125.147666,31.6986672 125.452163,31.8118327 125.748498,31.9355 C126.044833,32.0591673 126.309663,32.2143324 126.542998,32.401 C126.776332,32.5876676 126.964164,32.8174986 127.106498,33.0905 C127.248832,33.3635014 127.319998,33.702998 127.319998,34.109 C127.319998,34.5243354 127.248832,34.9151648 127.106498,35.2815 C126.964164,35.6478352 126.757666,35.966332 126.486998,36.237 C126.21633,36.507668 125.885,36.7211659 125.492998,36.8775 C125.100996,37.0338341 124.653001,37.112 124.148998,37.112 C123.495661,37.112 122.933334,36.9965012 122.461998,36.7655 C121.990662,36.5344988 121.577666,36.2183353 121.222998,35.817 L121.418998,35.509 C121.474998,35.4389996 121.540331,35.404 121.614998,35.404 C121.656998,35.404 121.710664,35.4319997 121.775998,35.488 C121.841332,35.5440003 121.920664,35.6128329 122.013998,35.6945 C122.107332,35.7761671 122.219331,35.8648329 122.349998,35.9605 C122.480665,36.0561671 122.63233,36.1448329 122.804998,36.2265 C122.977666,36.3081671 123.175997,36.3769997 123.399998,36.433 C123.623999,36.4890003 123.87833,36.517 124.162998,36.517 C124.555,36.517 124.904996,36.4575006 125.212998,36.3385 C125.521,36.2194994 125.781164,36.0573344 125.993498,35.852 C126.205832,35.6466656 126.367997,35.4028347 126.479998,35.1205 C126.591999,34.8381653 126.647998,34.5360016 126.647998,34.214 C126.647998,33.8639983 126.576832,33.5758345 126.434498,33.3495 C126.292164,33.1231655 126.104332,32.9341674 125.870998,32.7825 C125.637664,32.6308326 125.372833,32.5036672 125.076498,32.401 C124.780163,32.2983328 124.475666,32.1980005 124.162998,32.1 C123.85033,32.0019995 123.545833,31.8923339 123.249498,31.771 C122.953163,31.6496661 122.688333,31.4945009 122.454998,31.3055 C122.221664,31.1164991 122.033832,30.8808347 121.891498,30.5985 C121.749164,30.3161653 121.677998,29.9626688 121.677998,29.538 C121.677998,29.206665 121.740997,28.8870015 121.866998,28.579 C121.992999,28.2709985 122.17733,27.9991678 122.419998,27.7635 C122.662666,27.5278322 122.962496,27.338834 123.319498,27.1965 C123.6765,27.054166 124.083662,26.983 124.540998,26.983 C125.054334,26.983 125.515163,27.0646659 125.923498,27.228 C126.331833,27.3913341 126.703996,27.6409983 127.039998,27.977 L126.871998,28.299 Z" id="JENKINS" fill="#4A4A4A"></path>
                <g transform="translate(31.500000, 32.500000) scale(1, -1) translate(-31.500000, -32.500000) translate(16.000000, 11.000000)">
                    <path d="M30.0783783,21.877646 C30.0783783,13.511931 23.4480962,6.73010442 15.2691969,6.73010442 C7.09043296,6.73010442 0.460142423,13.511931 0.460142423,21.877646 C0.460142423,30.2435642 7.09043296,37.0254923 15.2691969,37.0254923 C23.4480962,37.0254923 30.0783783,30.2435642 30.0783783,21.877646" id="path22" fill="#D33833"></path>
                    <path d="M1.06361741,18.1260996 C1.06361741,18.1260996 -0.00846238938,33.9225033 14.546915,34.3738872 L13.531496,36.066365 L5.63331106,33.41476 L3.37662876,30.8196836 L1.40211299,27.0397035 L0.27370583,22.6392611 L0.612201405,19.7056892" id="path24" fill="#EF3D3A" fill-rule="nonzero"></path>
                    <path d="M5.12622777,32.2110697 C2.52793573,29.5525254 0.920086825,25.8818794 0.920086825,21.8211173 C0.920086825,17.7612013 2.52793573,14.0900814 5.12622777,11.432028 C7.72577223,8.77397456 11.3083248,7.13379425 15.2689938,7.13379425 C19.2297644,7.13379425 22.8125708,8.77397456 25.4118783,11.432028 C28.0100011,14.0900814 29.6181936,17.7612013 29.6181936,21.8211173 C29.6181936,25.8818794 28.0100011,29.5525254 25.4118783,32.2110697 C22.8125708,34.8685985 19.2297644,36.5087788 15.2689938,36.5091173 C11.3083248,36.5087788 7.72577223,34.8685985 5.12622777,32.2110697 Z M4.46853086,10.7890218 C1.70715166,13.6130735 0,17.5159613 0,21.8211173 C0,26.1269502 1.70715166,30.0294657 4.46853086,32.8537035 C7.22926692,35.6784491 11.0508312,37.4293175 15.2689938,37.4288097 C19.4871903,37.4293175 23.3091438,35.6784491 26.069406,32.8537035 C28.8310221,30.0294657 30.5383938,26.1266117 30.5380553,21.8211173 C30.5383938,17.5159613 28.8310221,13.6130735 26.069406,10.7890218 C23.3091438,7.96442854 19.4871903,6.2137802 15.2689938,6.2137802 C11.0508312,6.2137802 7.22926692,7.96442854 4.46853086,10.7890218 Z" id="path26" fill="#231F20" fill-rule="nonzero"></path>
                    <polyline id="path28" fill="#F0D6B7" points="21.5031007 21.7936991 19.2463507 21.4552035 16.1998566 21.116708 14.2252088 21.0603485 12.3071575 21.116708 10.8402531 21.5680918 9.54266416 22.9784336 8.52717743 25.855646 8.30153628 26.4762777 6.94755398 26.9274923 6.15770841 28.225115 5.59357168 30.0868407 6.21423717 31.7229591 7.6809385 32.2307024 8.86567301 31.6664303 9.42994513 30.4253363 10.1069363 30.5382246 10.3325097 30.8201914 10.1069363 32.1178142 10.0504075 33.7539325 10.3889031 36.0105133 10.3756848 37.2995044 11.4043898 38.9440852 13.2097221 40.241708 16.3691044 41.5956903 19.8668131 41.0879469 22.9132732 38.8877257 24.3237843 36.6311449 25.2263827 34.9950265 25.45199 30.9330796 24.7749989 27.4352356 23.5339049 24.3324159 22.3491704 22.6962976"></polyline>
                    <polyline id="path30" fill="#335061" points="19.5848462 12.0338562 11.5172442 11.6953606 11.5172442 10.3413783 12.1942354 5.60244027 11.8557398 5.20741593 6.21423717 7.12567035 5.81921283 7.8026615 5.25507611 14.1775487 3.95769027 18.0138883 3.67552035 18.9164867 8.18868186 22.0193064 9.59919292 22.5835785 10.8402531 21.0603485 11.9121332 20.1012212 13.1533965 19.7063662 13.7174655 19.5371184 14.3944566 16.6035465 14.9022 15.9829487 16.1998566 16.4342987 15.2970889 14.685292 20.2053086 12.3723518 19.5848462 12.0338562"></polyline>
                    <polyline id="path32" fill="#6D6B6D" points="6.21423717 31.7229591 7.6809385 32.2307024 8.86567301 31.6664303 9.42994513 30.4253363 10.1069363 30.5382246 10.2761841 31.2152157 9.9376885 32.5126692 10.2761841 35.6156582 9.99401416 37.3081361 11.0095009 38.4928706 13.2097221 40.241708 12.5891243 41.0879469 9.4862708 39.5647168 8.18868186 38.5492301 7.45529735 36.9696405 6.32695619 35.4464104 5.98846062 33.6410442 6.21423717 31.7229591"></polyline>
                    <path d="M8.52717743,37.026 C8.52717743,37.026 9.37341637,39.113333 12.7583721,40.1288197 C16.1433279,41.1443064 12.9276199,40.8623396 12.9276199,40.8623396 L9.26069735,39.4518285 L7.85018628,38.0414867 L7.22972389,36.9131117 L8.52717743,37.026" id="path34" fill="#DCD9D8"></path>
                    <path d="M6.83469956,32.1178142 C6.83469956,32.1178142 5.64996504,36.067042 10.1632619,36.6311449 L9.99401416,37.3081361 L6.89122832,36.5746162 L5.98846062,33.6410442 L6.21423717,31.7229591 L6.83469956,32.1178142" id="path36" fill="#DCD9D8"></path>
                    <path d="M8.64003186,26.8711327 L9.37871383,27.5868816 C9.37871383,27.5868816 9.71211504,27.5481239 9.76844071,27.1532688 C9.82476637,26.7582445 9.99401416,23.2040409 12.4198765,21.2857865 C12.6411511,21.1107843 10.6146796,21.5680918 10.6146796,21.5680918 L8.80927965,24.3887754" id="path38" fill="#F7E4CD"></path>
                    <path d="M19.0209126,27.942979 C19.0209126,27.942979 19.1524181,29.6530586 19.6129414,29.5215531 C20.0734646,29.3900476 20.0734646,28.9295243 20.0734646,28.9295243 C20.0734646,28.9295243 18.9550752,28.20599 19.0209126,27.942979" id="path40" fill="#F7E4CD"></path>
                    <path d="M23.7031527,34.2051471 C23.7031527,34.2051471 22.7733053,34.0088197 22.6876659,33.1896604 C22.6020265,32.3703319 23.7031527,33.0204126 23.8724004,33.0767721" id="path42" fill="#F7E4CD" fill-rule="nonzero"></path>
                    <path d="M16.8768478,34.1486184 C16.8768478,34.1486184 15.6355845,33.9793706 15.6355845,33.1896604 C15.6355845,32.399781 17.0461294,32.4561405 17.4409845,32.7946361" id="path44" fill="#F7E4CD" fill-rule="nonzero"></path>
                    <path d="M9.20416858,30.4816958 C9.20416858,30.4816958 7.06027301,31.7793186 6.83469956,30.5380553 C6.60905841,29.2969613 6.10117965,28.3941936 7.17319513,27.09674 L6.43981062,27.3223473 L5.76281947,29.0711847 L5.53724602,30.7636626 L6.83469956,32.1178142 L8.30153628,32.0049259 L9.14777522,31.3279347 L9.20416858,30.4816958" id="path46" fill="#F7E4CD"></path>
                    <path d="M10.2196553,34.0358993 C10.2196553,34.0358993 11.1787487,39.0004447 16.0306088,39.9595719 C20.0250597,40.7491128 22.1233938,39.7903241 22.9132732,38.8877257 C22.9132732,38.8877257 19.3590697,43.1187511 15.9740801,41.8212976 C12.5891243,40.5236748 10.1069363,38.1542058 10.1632619,36.6311449 C10.259327,34.0369148 10.2196553,34.0358993 10.2196553,34.0358993" id="path48" fill="#F7E4CD"></path>
                    <path d="M23.3082976,38.3236228 C23.3082976,38.3236228 21.6723485,38.3799823 21.6158197,36.9131117 C21.6158197,36.9131117 21.6156504,36.6875044 21.7285387,36.4618971 C21.7285387,36.4618971 23.0263308,37.9287677 23.8160409,37.1388883" id="path50" fill="#F7E4CD"></path>
                    <path d="M16.1443264,36.3090664 C16.1443264,36.3090664 15.8626812,38.5605697 13.9431066,37.2516073 C12.7019788,36.4053684 12.8149009,35.2206338 13.0404743,34.9950265 C13.2661155,34.76925 13.2047632,34.3148197 13.3765327,34.6267434 C13.5482177,34.938667 13.4916889,35.9541538 14.1123544,36.2361206 C14.7329522,36.5182566 15.7502837,36.833396 16.1443264,36.3090664" id="path52" fill="#F7E4CD"></path>
                    <path d="M10.8402531,21.0603485 L5.53724602,18.6908794 C5.53724602,18.6908794 7.73746726,9.94635398 6.60905841,7.23838938 L5.81921283,7.52035619 L5.76281947,10.8489863 L4.29618584,17.1674801 L3.67552035,18.9164867 L9.20416858,22.6397688 L10.8402531,21.0603485" id="path54" fill="#49728B"></path>
                    <path d="M11.3855525,16.2237206 L12.1379097,15.3057544 L12.1379097,11.9207987 L11.235142,11.9207987 C11.235142,11.9207987 11.122423,14.2902677 11.122423,14.5724376 C11.122423,14.8545398 11.235142,15.8700265 11.235142,15.8700265" id="path56" fill="#49728B"></path>
                    <polyline id="path58" fill="#49728B" points="11.4043898 11.4130553 8.86567301 11.3003363 9.59919292 10.7925929 11.4043898 10.5104907"></polyline>
                    <polyline id="path60" fill="#335061" points="20.0925896 11.9773274 22.1799226 12.0337208 22.6876659 6.84336504 20.5438042 6.56139823 20.0925896 11.9773274"></polyline>
                    <path d="M20.6566925,11.9773274 L23.8160409,12.1465752 C23.8160409,12.1465752 25.1134945,15.4186765 25.1134945,15.5879243 C25.1134945,15.7571721 26.2418695,20.3268285 26.2418695,20.3268285 L23.7031527,22.9782644 L23.1954093,23.4296482 L21.841427,22.0756659 L21.841427,16.8289845 L20.6566925,11.9773274" id="path62" fill="#335061"></path>
                    <path d="M22.0670343,12.3722164 L20.0925896,11.9773274 L20.3745564,10.3975686 C21.1079071,10.059073 22.3491704,10.9618407 22.3491704,10.9618407" id="path64" fill="#49728B"></path>
                    <polyline id="path66" fill="#49728B" points="22.1235631 22.2449137 26.0726217 19.3113418 26.18551 20.6653241 23.1954093 23.4296482 22.1235631 22.2449137"></polyline>
                    <polyline id="path68" fill="#FFFFFF" points="13.3622482 0.862833684 12.1942354 5.60244027 11.6133093 9.09957345 11.5172442 11.6953606 16.803665 11.9767858 20.0925896 11.9773274 19.7935288 6.05311327 20.3012721 1.48342978 20.2449126 0.637190841 15.9574261 0.298695265 13.3622482 0.862833684"></polyline>
                    <path d="M19.3590697,12.0337208 C19.3590697,12.0337208 19.0771029,6.16637389 19.9233418,1.99170796 C19.9233418,1.99170796 18.2308639,0.919689093 15.7484389,0.637720586 L20.4874447,0.806968374 L21.0515476,1.14546395 L20.3745564,10.3975686 L20.2053086,12.3723518" id="path70" fill="#DCD9D8"></path>
                    <polyline id="path72" fill="#FFFFFF" points="22.7837987 7.29424115 24.9840199 7.91483894 29.1586858 8.14048009 29.7793175 10.0585483 28.6509425 13.3871615 27.3534889 13.5564093 25.5481228 12.9922726 23.8160409 12.1465752 22.8965177 12.3152814 22.1799226 12.0337208"></polyline>
                    <path d="M22.7440254,8.42312389 C22.7440254,8.42312389 24.2107268,9.09997965 24.4365033,9.04358628 L23.8160409,12.1465752 L24.5493916,12.428542 C24.5493916,12.428542 25.057135,9.49500398 25.057135,9.15650841 C25.057135,9.15650841 28.2163142,8.98726062 28.4984502,8.98726062 C28.4984502,8.98726062 29.1754414,10.2848496 29.0061936,11.6388319 L29.6268252,9.83349956 L29.6831847,8.81801283 L28.7805863,7.46403053 L27.7650996,7.23838938 L26.0726217,7.29478274 L25.5085188,8.02809956 L23.5339049,7.74613274 L22.9132732,7.52035619" id="path74" fill="#DCD9D8"></path>
                    <path d="M20.5270487,12.4280174 L19.2859546,15.5873827 L17.9883319,17.4491084 C17.9883319,17.4491084 18.2702987,18.2389878 18.665323,18.2389878 C19.0603473,18.2389878 19.9629458,18.2389878 19.9629458,18.2389878 L21.2040398,17.787604 L21.0913208,15.7002372 L20.5270487,12.4280174" id="path76" fill="#FFFFFF" fill-rule="nonzero"></path>
                    <path d="M20.7695808,13.5005575 C20.7695808,13.5005575 19.1898219,16.5468823 19.1898219,16.9982323 C19.1898219,16.9982323 19.4717887,17.6752235 19.8668131,17.5059757 C20.2618374,17.3367279 21.1080763,16.8855133 21.1080763,16.8855133 L21.1080763,17.9573595 L19.1898219,18.3523838 L17.8923684,18.1831361 L20.0925896,12.9928142 L20.5438042,12.9362854" id="path78" fill="#DCD9D8"></path>
                    <polyline id="path80" fill="#FFFFFF" fill-rule="nonzero" points="13.8700593 20.9467832 12.3071575 21.116708 10.8402531 21.5680918 10.8402531 21.0603485 11.5569836 20.2699613 13.8135982 19.2544746"></polyline>
                    <path d="M11.3481996,20.7777046 C11.3481996,20.7777046 13.0972062,20.0441847 13.6613429,20.2134325 L13.7174655,19.5371184 L12.1381128,19.8749369 L11.1789518,20.5519281 L11.3481996,20.7777046" id="path82" fill="#DCD9D8"></path>
                    <path d="M22.7777058,18.0468916 C21.8204403,18.0749867 20.9555841,18.1887212 20.1983695,18.4023119 C20.2498208,18.7127124 20.1535188,19.0173584 20.230865,19.2409347 C20.441917,19.3929192 20.7956449,19.3905498 21.114677,19.4262611 C20.8388031,19.5618285 20.4512257,19.6154801 20.1328706,19.5371184 C20.1254237,19.7525708 20.0287832,19.8861073 19.9702235,20.0546781 C20.5084314,20.2467743 21.7789746,21.5061471 22.493708,21.0891206 C22.8342345,20.8907622 22.9789414,19.7578175 23.005344,19.2069159 C23.0273462,18.7499469 22.9638783,18.2889159 22.7777058,18.0468916" id="path84" fill="#D33833"></path>
                    <path d="M22.7777058,18.0468916 C21.8204403,18.0749867 20.9555841,18.1887212 20.1983695,18.4023119 C20.2498208,18.7127124 20.1535188,19.0173584 20.230865,19.2409347 C20.441917,19.3929192 20.7956449,19.3905498 21.114677,19.4262611 C20.8388031,19.5618285 20.4512257,19.6154801 20.1328706,19.5371184 C20.1254237,19.7525708 20.0287832,19.8861073 19.9702235,20.0546781 C20.5084314,20.2467743 21.7789746,21.5061471 22.493708,21.0891206 C22.8342345,20.8907622 22.9789414,19.7578175 23.005344,19.2069159 C23.0273462,18.7499469 22.9638783,18.2889159 22.7777058,18.0468916 Z" id="path86" stroke="#D33833" stroke-width="2.125"></path>
                    <path d="M18.2000608,19.6117566 C18.1975221,19.5393186 18.1944757,19.4663728 18.1915985,19.3932577 C17.8927069,19.1969303 17.4101814,19.1992998 17.0821792,19.0342832 C17.5657201,19.0131272 17.9463584,18.8966847 18.2757146,18.7325144 C18.2684369,18.5500653 18.2614978,18.3677854 18.2543894,18.1853363 C17.7065343,17.8102832 17.2060686,17.2517655 16.5610314,16.9000517 C16.2560469,16.7337149 15.18569,16.3057042 14.8612082,16.381341 C14.6776251,16.4239746 14.6610896,16.651799 14.5877038,16.8665406 C14.4313527,17.3264038 14.0713626,18.0584004 14.0399671,18.7506239 C13.9999739,19.624958 13.9117112,21.0903053 14.8539475,20.9102257 C15.614107,20.7651803 16.4982236,20.4150066 17.0867489,20.0934358 C17.4464004,19.8967699 17.654406,19.6537301 18.2000608,19.6117566" id="path88" fill="#D33833"></path>
                    <path d="M18.2000608,19.6117566 C18.1975221,19.5393186 18.1944757,19.4663728 18.1915985,19.3932577 C17.8927069,19.1969303 17.4101814,19.1992998 17.0821792,19.0342832 C17.5657201,19.0131272 17.9463584,18.8966847 18.2757146,18.7325144 C18.2684369,18.5500653 18.2614978,18.3677854 18.2543894,18.1853363 C17.7065343,17.8102832 17.2060686,17.2517655 16.5610314,16.9000517 C16.2560469,16.7337149 15.18569,16.3057042 14.8612082,16.381341 C14.6776251,16.4239746 14.6610896,16.651799 14.5877038,16.8665406 C14.4313527,17.3264038 14.0713626,18.0584004 14.0399671,18.7506239 C13.9999739,19.624958 13.9117112,21.0903053 14.8539475,20.9102257 C15.614107,20.7651803 16.4982236,20.4150066 17.0867489,20.0934358 C17.4464004,19.8967699 17.654406,19.6537301 18.2000608,19.6117566 Z" id="path90" stroke="#D33833" stroke-width="2.125"></path>
                    <path d="M18.7441925,18.5685133 C18.6605841,19.0447765 18.5639436,19.1806825 18.6013473,19.5961858 C19.871552,20.4431018 20.1100221,18.1415011 18.7441925,18.5685133" id="path92" fill="#D33833"></path>
                    <path d="M18.7441925,18.5685133 C18.6605841,19.0447765 18.5639436,19.1806825 18.6013473,19.5961858 C19.871552,20.4431018 20.1100221,18.1415011 18.7441925,18.5685133 Z" id="path94" stroke="#D33833" stroke-width="2.125"></path>
                    <path d="M20.5834082,18.1824591 C20.5834082,18.1824591 20.1883838,18.7467312 20.4705199,18.915979 C20.752656,19.0852268 21.034792,18.9158097 21.2040398,19.1979458 C21.3732876,19.4800819 21.2040398,19.6493296 21.2603993,19.9878252 C21.3167588,20.3263208 21.5990642,20.3828496 21.881031,20.4392091 C22.1629978,20.4955686 22.9530465,20.6084569 23.0657655,20.3263208 L22.7272699,21.3418075 L22.0502788,21.5674148 L19.906417,20.3263208 L19.7935288,19.7056892 L19.7935288,18.4645951" id="path96" fill="#EF3D3A"></path>
                    <path d="M14.6597695,16.3207165 C14.5920027,17.2011604 14.5202754,18.0804027 14.4404751,18.9599834 C14.3210708,20.2733462 14.755953,20.0441847 15.8944152,20.0441847 C16.0683003,20.0441847 16.9650597,19.8368562 17.0292046,19.7056892 C17.3368971,19.0772721 16.5146914,19.2169015 17.3836095,18.7430077 C18.1171294,18.3430752 19.4128905,18.9858783 19.1165376,19.8749369 C18.9506748,20.0726184 18.2523584,19.9365431 18.0020409,20.0663562 C17.5613197,20.2948407 17.1205985,20.5233252 16.6798264,20.7518097 C16.1190747,21.0427467 14.8230597,21.4668816 14.2252088,21.0603485 C12.7103735,20.0301372 14.3208169,17.4560476 14.8612082,16.381341" id="path98" fill="#EF3D3A"></path>
                    <path d="M16.1443264,36.3090664 C14.6066764,36.6671947 13.8426242,35.6655863 13.3765327,34.6267434 C12.9603524,34.727615 13.1259614,35.2935796 13.2310812,35.5819779 C13.5063119,36.338854 14.6154773,37.3463861 15.5217485,37.2098031 C15.9117461,37.1510741 16.4395115,36.794469 16.1443264,36.3090664" id="path100" fill="#231F20"></path>
                    <path d="M23.6362998,34.5580288 C23.6605022,34.5570133 23.6850431,34.556167 23.7092456,34.5551515 C24.0567113,33.8333097 24.3574646,33.0686482 24.7958164,32.4314303 C24.5021715,31.7475 22.5722389,31.1422699 22.6020265,32.3703319 C23.0193916,32.552781 23.7398794,32.4075664 24.1098551,32.6406206 C23.8959259,33.2277412 23.5872179,33.7275299 23.6362998,34.5580288" id="path102" fill="#231F20"></path>
                    <path d="M16.9315487,34.5392423 C17.2612434,33.9348584 17.3685465,33.2998407 17.8371936,32.8430409 C18.0482456,32.6374049 18.4586715,32.3867489 18.2552356,31.8148606 C18.207677,31.6799701 17.8602113,31.3792168 17.6596527,31.3201493 C16.926979,31.1038507 15.2197427,31.2754679 15.7978931,32.1888982 C16.4038171,32.1606338 17.2182544,31.7953971 17.6711615,32.2352721 C17.3233573,32.7912511 16.7033011,33.8911925 16.9315487,34.5392423" id="path104" fill="#231F20"></path>
                    <path d="M23.3612721,28.3965631 C22.258115,27.6879226 21.0280221,26.9173374 19.2204558,27.0960631 C18.8342323,27.4318507 18.6869867,28.1790796 19.0622091,28.6726062 C19.257521,28.3368186 19.1348164,27.7192334 19.6791173,27.6263164 C20.7047588,27.4508064 21.8984635,28.2537179 22.6362146,28.5343308 C23.0936914,29.3055929 22.5967799,29.5892522 22.1846615,30.085656 C21.3409613,31.1026659 20.2092013,32.3632235 20.2503285,33.8857765 C20.5913628,34.1330476 20.6208119,33.508354 20.6697246,33.3946195 C21.1102765,32.3635619 22.2190188,31.0449524 23.0281925,30.1624945 C23.2268894,29.9451803 23.5540454,29.736667 23.5904336,29.5929757 C23.6953673,29.1751029 23.3174369,28.6744679 23.3612721,28.3965631" id="path106" fill="#231F20"></path>
                    <path d="M8.81808053,29.1426073 C8.4723073,29.3399502 8.3900021,30.2092069 7.98406128,30.233917 C7.40393064,30.2691206 7.50971051,29.106219 7.5120292,28.4261814 C7.11270597,28.7887102 7.04248507,29.9048993 7.33584226,30.4781416 C7.00151018,30.6423119 6.8522167,30.2970465 6.6667719,30.1753573 C6.90510664,31.9067622 9.19954812,30.9784381 8.81808053,29.1426073" id="path108" fill="#231F20"></path>
                    <path d="M24.0636504,27.6755675 C23.5501527,26.6981615 22.8237412,25.6217456 21.3169281,25.5904347 C21.2862942,25.9060819 21.2627688,26.3864071 21.3186206,26.5764723 C22.470521,26.6871604 23.1817002,27.2734347 24.0636504,27.6755675" id="path110" fill="#231F20"></path>
                    <path d="M16.8446569,27.0419038 C17.8057135,26.5365299 19.5719834,26.4822013 20.8782378,26.5204513 C20.9483064,26.2342533 20.9466139,25.8806947 20.9493219,25.5317058 C19.2702146,25.4479281 17.2849381,25.8634314 16.8446569,27.0419038" id="path112" fill="#231F20"></path>
                    <path d="M16.6619877,26.0995321 C17.326573,24.4309181 19.6107412,24.6230144 21.5369502,24.6690498 C21.4521571,24.4524126 21.268354,24.19651 21.0398695,24.1039314 C20.4226228,23.8527677 18.7201593,23.6621947 17.8632577,24.117302 C17.3198031,24.406208 16.9706449,25.0589967 16.6728873,25.4416659 C16.5290944,25.6264845 15.8130916,26.0985166 16.6619877,26.0995321" id="path114" fill="#231F20"></path>
                    <path d="M23.2810487,16.8953635 C22.5011549,15.5596261 21.7549414,14.1877205 20.8296637,13.0095358 C21.2175796,14.1501136 21.3836117,16.0591102 21.4421715,17.5144381 C22.2537146,17.8942301 22.948646,17.4289679 23.2810487,16.8953635" id="path116" fill="#81B0C4"></path>
                    <path d="M27.4777168,12.0945992 C26.6045675,11.9198001 25.9910442,11.0711917 25.1392201,11.1256556 C25.6073595,11.7856035 26.4277035,12.0637961 27.4777168,12.0945992" id="path118" fill="#231F20"></path>
                    <path d="M27.8629248,10.7561977 C27.1512378,10.6667243 26.315323,10.5295425 25.5934812,10.6002186 C25.9351925,11.2215559 27.251771,11.0071704 27.8629248,10.7561977" id="path120" fill="#231F20"></path>
                    <path d="M28.1095188,9.55200879 C27.3096538,9.52937373 26.3154923,9.55019622 25.5552312,9.63350826 C26.0049226,10.26435 27.5907743,9.86759543 28.1095188,9.55200879" id="path122" fill="#231F20"></path>
                    <path d="M21.7760973,6.32597456 C21.8908473,5.32145509 22.2890874,4.30364967 22.2391593,3.20353905 C21.7969148,3.0543979 21.5428739,2.92395863 20.9503374,2.92475409 C20.9085332,3.85971272 20.7834591,5.28899336 20.8208628,6.18025221 C21.1123075,6.16095796 21.5420277,6.38844392 21.7760973,6.32597456" id="path124" fill="#DCD9D8"></path>
                    <path d="M20.4865985,21.130417 C20.0849735,20.8682522 19.7429237,20.540927 19.357208,20.2609912 C18.5018296,20.2186792 18.0350442,20.3202279 17.4066272,20.811385 C17.4169513,20.8508197 17.4800808,20.8332179 17.4824502,20.8816228 C18.3980808,20.4735664 19.5619978,21.0478241 20.4865985,21.130417" id="path126" fill="#F0D6B7"></path>
                    <path d="M15.6798767,14.888914 C15.9314466,15.979039 16.9171795,16.5436327 17.8123142,17.1439546 C18.7362378,15.9713721 19.2981405,14.4634082 19.9169104,13.0082157 C18.454948,13.44892 16.961167,14.1639919 15.6798767,14.888914" id="path128" fill="#81B0C4"></path>
                    <path d="M20.8208628,6.18025221 C20.7834591,5.28899336 20.9085332,3.85971272 20.9503374,2.92475409 C21.5428739,2.92395863 21.7969148,3.0543979 22.2391593,3.20353905 C22.2890874,4.30364967 21.8908473,5.32145509 21.7760973,6.32597456 C21.5420277,6.38844392 21.1123075,6.16095796 20.8208628,6.18025221 Z M11.594472,11.2490204 C11.9851975,7.65707456 12.5511113,4.63759248 13.5890741,1.4568528 C15.8927565,0.75738385 18.6698927,0.696427566 20.7061128,1.32760334 C20.3322445,3.12282478 20.4955686,5.30842301 20.2770697,7.22417257 C20.1123916,8.66409889 20.1963385,10.1128938 19.9705619,11.5819646 C17.5032677,12.0952593 14.0158324,11.7019613 11.594472,11.2490204 Z M20.5539591,11.5594208 C20.5331416,10.0167611 20.6230122,8.4950542 20.7408086,6.95046504 C21.3331759,7.03938783 21.7351394,7.09875996 22.2855332,7.2194167 C22.1068075,8.70641084 22.1288097,10.3796452 21.7647577,11.6950221 C21.3440077,11.690994 20.9735243,11.6999134 20.5539591,11.5594208 Z M23.5589535,11.8080796 C23.277833,11.8725292 22.9505077,11.8105845 22.6819115,11.8053717 C22.8081704,10.5478437 23.1145088,9.16019801 23.2223197,7.84020066 C23.6449314,7.82705011 23.870708,8.02637323 24.2183429,8.09341228 C24.2369602,9.25209956 24.1171327,10.8484447 23.5589535,11.8080796 Z M28.1090111,7.65086316 C28.9899458,7.86479237 29.5438938,8.94374701 29.297469,10.0517954 C29.1321139,10.7964856 28.8376228,12.1987374 28.5224834,12.6751361 C28.2895985,13.02751 27.658135,13.4888456 27.1539458,13.1659546 C26.333771,12.6407618 24.8889027,12.4883034 24.290781,11.8525749 C24.5906881,10.8540129 24.6837743,9.4824458 24.8074945,8.21718319 C25.8321206,8.15330907 27.0928473,8.49915 27.94501,8.1321531 C27.350104,7.93944757 26.5781648,7.93792434 26.0641593,7.65707456 C26.4842323,7.45418031 27.4677312,7.49517212 28.1090111,7.65086316 Z M19.9169104,13.0082157 C19.2981405,14.4634082 18.7362378,15.9713721 17.8123142,17.1439546 C16.9171795,16.5436327 15.9314466,15.979039 15.6798767,14.888914 C16.961167,14.1639919 18.454948,13.44892 19.9169104,13.0082157 Z M21.4421715,17.5144381 C21.3836117,16.0591102 21.2175796,14.1501136 20.8296637,13.0095358 C21.7549414,14.1877205 22.5011549,15.5596261 23.2810487,16.8953635 C22.948646,17.4289679 22.2537146,17.8942301 21.4421715,17.5144381 Z M19.7131361,18.1288075 C19.3626239,18.1665498 19.0650863,17.7258285 18.609302,17.9164015 C18.5048761,17.8009746 18.4099281,17.6759004 18.3034712,17.5631814 C19.3101571,16.3499963 19.7676338,14.6287633 20.5451582,13.2030538 C20.962354,14.572573 20.9142876,16.0729885 21.0061892,17.5677511 C20.4329469,17.5313628 20.1149303,18.0861571 19.7131361,18.1288075 Z M18.6013473,19.5961858 C18.5639436,19.1806825 18.6605841,19.0447765 18.7441925,18.5685133 C20.1100221,18.1415011 19.871552,20.4431018 18.6013473,19.5961858 Z M17.0867489,20.0934358 C16.4982236,20.4150066 15.614107,20.7651803 14.8539475,20.9102257 C13.9117112,21.0904746 13.9999739,19.624958 14.0399671,18.7506239 C14.0713626,18.0584004 14.4313527,17.3264038 14.5877038,16.8665406 C14.6610896,16.651799 14.6776251,16.4239746 14.8612082,16.381341 C15.18569,16.3057042 16.2560469,16.7337149 16.5610314,16.9000517 C17.2060686,17.2517655 17.7065343,17.8102832 18.2543894,18.1853363 C18.2614978,18.3677854 18.2684369,18.5500653 18.2757146,18.7325144 C17.9463584,18.8966847 17.5657201,19.0131272 17.0821792,19.0342832 C17.4101814,19.1992998 17.8927069,19.1969303 18.1915985,19.3932577 C18.1944757,19.4663728 18.1975221,19.5393186 18.2000608,19.6117566 C17.654406,19.6537301 17.4464004,19.8967699 17.0867489,20.0934358 Z M11.4654206,21.1145077 C10.9769715,20.6186117 12.8353968,19.9426361 13.427104,19.9062478 C13.4238037,20.2200332 13.6059312,20.5158783 13.5692383,20.7409779 C12.8664707,20.8643595 11.9428855,20.7829513 11.4654206,21.1145077 Z M17.4824502,20.8816228 C17.4800808,20.8332179 17.4169513,20.8508197 17.4066272,20.811385 C18.0350442,20.3202279 18.5018296,20.2186792 19.357208,20.2609912 C19.7429237,20.540927 20.0849735,20.8682522 20.4865985,21.130417 C19.5619978,21.0478241 18.3980808,20.4735664 17.4824502,20.8816228 Z M23.005344,19.2069159 C22.9789414,19.7578175 22.8342345,20.8907622 22.493708,21.0891206 C21.7789746,21.5063164 20.5084314,20.2467743 19.9702235,20.0546781 C20.0287832,19.8861073 20.1254237,19.7525708 20.1328706,19.5371184 C20.4512257,19.6154801 20.8388031,19.5618285 21.114677,19.4262611 C20.7956449,19.3905498 20.441917,19.3929192 20.230865,19.2409347 C20.1535188,19.0173584 20.2498208,18.7127124 20.1983695,18.4023119 C20.9555841,18.1887212 21.8204403,18.0749867 22.7777058,18.0468916 C22.9638783,18.2889159 23.0273462,18.7499469 23.005344,19.2069159 Z M10.6431133,20.6348595 C10.489724,20.7441936 9.45209967,22.0942832 9.30994845,22.0382622 C7.43236427,21.2978031 5.67674004,20.0174436 4.10789768,18.8064757 C5.6036927,15.5968437 6.20750111,11.6645406 6.31419491,7.87445642 C8.02769336,7.07303429 9.53274624,5.91771504 11.8579231,5.79707522 C11.588853,7.70077434 11.3432406,9.39920973 11.1905114,11.19151 C10.606285,11.4377824 9.76810221,11.1803396 9.22136416,11.2678746 C9.21672677,11.9267393 10.056365,11.5563913 10.1262982,11.999465 C10.179002,12.3345926 9.66431947,12.3599798 9.83190863,12.8876944 C10.259327,12.7323249 10.4837834,12.3891412 10.9396185,12.2602759 C11.3561373,13.171506 10.9337963,14.7837942 10.9938285,15.5454093 C11.005202,15.6884067 11.0652342,16.3376413 11.3855525,16.2237206 C11.6690426,16.1228997 11.3693555,14.4970716 11.4004294,13.7762452 C11.4287277,13.1121338 11.3202229,12.4695338 11.5891746,12.0526258 C13.8360066,12.3584565 16.1191931,12.5561379 18.5502345,12.6228385 C18.0154115,12.8523216 17.3800553,13.0695003 16.6834653,13.4621383 C16.3058396,13.6750181 15.1154861,14.1179735 15.0065243,14.4766434 C14.8326561,15.0481762 15.4626979,15.3526191 15.570458,15.8425915 C14.4363116,15.2240416 14.2150371,16.4354834 13.9467455,17.2937389 C13.7036549,18.071094 13.5652779,18.6517832 13.505635,19.1001206 C12.5286352,19.5658905 11.4840548,20.0375841 10.6431133,20.6348595 Z M22.0130442,21.8749381 C23.5774015,22.6335066 23.8593684,19.0398684 23.2461836,17.8822135 C23.3409624,17.536948 23.6669336,17.4047655 23.7999624,17.094365 C22.9269823,15.5305324 21.9573617,14.0707702 21.0666106,12.5253348 C21.7292157,12.9378086 22.6756493,12.59911 23.4553739,12.9078518 C23.7403872,13.0205708 23.9467002,13.6730379 24.1624912,14.1949981 C24.7560431,15.6310317 25.3792135,17.4414923 25.6564414,18.8118916 C25.7190631,19.1241538 25.8896648,19.8045299 25.8514148,20.0824347 C25.783208,20.5800232 25.1080785,20.9489834 24.7646748,21.2566759 C24.1320265,21.82501 23.7336173,22.3251372 23.0737201,22.8565752 C22.8061394,22.4615509 22.2318816,22.1961704 22.0130442,21.8749381 Z M7.06543507,35.7478407 C6.32001704,34.9276659 6.47604657,33.390896 6.56628949,32.2975553 C7.9136542,33.1451482 9.70199403,32.2305332 9.68513695,30.7888805 C10.3284139,30.8059746 9.92545188,31.5922998 9.80909403,32.0988584 C9.4288281,33.7534248 10.4497308,35.5510055 9.8553833,37.0640808 C8.70138418,36.9765796 7.75332577,36.5052246 7.06543507,35.7478407 Z M12.3990591,40.508104 C10.7115402,40.0298097 8.54879038,38.8036095 7.85534834,37.2876571 C8.39230387,37.3656803 8.7650552,37.6364768 9.29475,37.6699878 C9.49493628,37.6830199 9.75720265,37.5860409 9.9872781,37.6432467 C10.4457704,37.7569812 10.8327216,38.7849923 11.1786133,39.1674923 C11.5157887,39.5410221 11.9210525,39.7006228 12.1983989,40.0411493 C12.376583,40.1271272 12.6400341,40.1212035 12.6501551,40.3887843 C12.5729273,40.4713772 12.4916038,40.5343374 12.3990591,40.508104 Z M21.1835608,40.0582434 C19.4320155,41.0464812 16.4672851,41.7898175 14.6041039,40.8609856 C13.1007096,40.1113872 11.0685345,38.8711394 10.3756848,37.2995044 C11.0229222,35.782875 10.183961,34.3931814 10.130411,32.853365 C10.1019773,32.0340365 10.5161774,31.3187954 10.5479114,30.4268595 C10.3264337,30.0614535 9.64976416,30.0164336 9.18135398,30.0414823 C9.02368274,30.8305155 8.74765653,31.7173739 7.93514867,31.8063982 C6.78544845,31.9321493 5.94482854,30.9806383 5.89259867,29.9863075 C5.83078938,28.8169746 6.79072898,26.8789181 8.15132887,27.0134701 C8.67692788,27.0654292 8.80604701,27.5922976 9.37871383,27.5868816 C9.68909735,26.967604 8.89992876,26.7731383 8.8187406,26.3302168 C8.79758462,26.2158053 8.88418872,25.7686527 8.93455686,25.5589546 C9.18169248,24.5378827 9.73261095,23.216396 10.2748639,22.4390409 C10.9630931,21.4530033 12.3152306,21.3044038 13.7698985,21.2077633 C14.0297107,21.7674657 14.9868239,21.7214303 15.6104681,21.575031 C14.8630699,21.8710454 14.1682231,22.588656 13.5923744,23.2238429 C12.9309202,23.9526239 12.2608852,24.7343794 12.2270356,25.686906 C13.4770152,23.9527931 14.5096975,22.4383639 16.7826445,21.6755642 C18.5025066,21.0987677 20.5111394,21.9399292 21.8326261,22.8679148 C22.3809889,23.2536305 22.7083142,23.8656305 23.0980918,24.4258407 C24.5565,26.523667 25.2370454,29.5179989 25.0874303,32.42026 C25.0258241,33.6171803 25.0285321,34.8100387 24.6269071,35.6153197 C24.2071726,36.4573274 22.7875221,37.2106493 21.9565155,36.4490343 C21.8025,37.2678551 22.6475542,37.7742445 23.6401925,37.4795841 C22.9323982,38.3930144 22.1895697,39.4905863 21.1835608,40.0582434 Z M24.4468274,13.0518478 C25.8155343,13.7322747 28.3728684,14.883295 29.2309546,13.0493429 C29.5476173,12.3733334 29.9191162,11.2305893 30.0831173,10.5327637 C30.3148175,9.54828319 29.8319535,7.47902588 28.820021,7.14867113 C27.9262235,6.85692179 26.8833186,6.87469281 25.8067334,7.09095763 C25.6799668,7.196399 25.5388142,7.3802021 25.4401427,7.5717906 C24.6714192,7.60161206 23.9516084,7.53052799 23.3443473,7.21452544 C23.4018916,6.64602212 23.0173606,6.55478064 22.6568628,6.43769502 C22.3896206,5.37805155 23.1915166,3.99424779 22.9995896,3.02801217 C22.8626681,2.33964757 22.0157522,2.23320763 21.3932588,2.10442699 C21.3729491,1.72189314 21.4205077,1.40257503 21.4629889,1.07895465 C21.3206515,0.554484524 20.6822489,0.255921272 20.0773573,0.18280115 C18.0871726,-0.0565260531 15.0653718,-0.16402497 13.1510778,0.524338108 C12.6168979,1.83461217 12.1960802,3.42826626 11.7511447,4.92445055 C9.8841385,4.72505973 8.37412666,5.73003617 6.95060044,6.38844392 C6.45773396,6.61692843 5.77591925,6.74279801 5.59179458,7.13511438 C5.41328894,7.51494027 5.48633628,8.24289192 5.44204414,8.93052876 C5.32932511,10.6868131 5.2328031,12.3808142 4.76901338,14.1790719 C4.56077091,14.9860284 4.1978021,15.6980708 3.94459049,16.4756121 C3.71055465,17.1962522 3.30165199,18.0868341 3.19500896,18.8054602 C3.03688075,19.8705365 4.03979237,19.9297732 4.68108916,20.3913119 C5.67244115,21.1050299 6.4505917,21.4997157 7.52424889,22.1438728 C7.84224856,22.334615 8.80122345,22.817479 8.91030365,23.0398706 C9.12714392,23.4807611 8.53809392,24.1024082 8.38060885,24.4480122 C8.13149303,24.9945133 8.00157843,25.45876 7.96588407,25.9979834 C7.06523197,26.1403208 6.38248639,26.6763285 5.97008031,27.2807124 C5.28787633,28.2809668 4.81476106,30.1315221 5.40501272,31.539156 C5.45130199,31.6500133 5.68215597,31.8680044 5.71620863,32.0382677 C5.78338308,32.3735476 5.58979746,32.8193462 5.57776394,33.1759513 C5.51575155,35.0055199 5.88731814,36.5818938 7.11898507,37.1336416 C7.61899381,39.1255188 9.40858606,39.7877854 11.0946494,40.7777157 C11.7249113,41.1476914 12.4196735,41.3841305 13.1371994,41.6481571 C15.7111537,42.5954369 19.6603308,42.4170498 21.7965763,40.8014104 C22.7023905,40.1162954 24.1503053,38.6697345 24.6682035,37.6224292 C26.0360642,34.8574281 25.9389159,30.2364558 24.9821582,26.8729945 C24.8535299,26.4214414 24.6670188,25.7576515 24.4065465,25.2152124 C24.2249436,24.8364358 23.6605022,24.0785442 23.7290476,23.7441106 C23.7996239,23.3983374 25.0160077,22.4747522 25.2768186,22.22325 C25.7464812,21.7701737 26.6387555,21.1688363 26.7110243,20.5971173 C26.7887091,19.9886715 26.4429358,19.1563108 26.2677644,18.5691903 C25.682167,16.6098256 25.1107865,14.7986711 24.4468274,13.0518478 Z" id="path130" fill="#231F20"></path>
                    <path d="M15.3154015,26.6150608 C15.3896506,26.7139015 15.7978931,26.8640243 16.3691044,26.5889967 C16.3691044,26.5889967 15.6921133,26.4761084 15.7484389,25.3473949 L15.4663367,25.4039237 C15.4663367,25.4039237 15.1747905,26.427365 15.3154015,26.6150608" id="path132" fill="#F7E4CD"></path>
                    <path d="M20.2618374,16.9136084 C20.2618374,16.7423127 20.122885,16.6034111 19.9514369,16.6034111 C19.7801582,16.6034111 19.6412058,16.7423127 19.6412058,16.9136084 C19.6412058,17.0848872 19.7801582,17.2240088 19.9514369,17.2240088 C20.122885,17.2240088 20.2618374,17.0848872 20.2618374,16.9136084" id="path134" fill="#1D1919"></path>
                    <path d="M20.5720686,15.4750022 C20.5720686,15.3037065 20.4331162,15.1648049 20.2616681,15.1648049 C20.0903894,15.1648049 19.9514369,15.3037065 19.9514369,15.4750022 C19.9514369,15.6462979 20.0903894,15.7854027 20.2616681,15.7854027 C20.4331162,15.7854027 20.5720686,15.6462979 20.5720686,15.4750022" id="path136" fill="#1D1919"></path>
                </g>
            </g>
        </g>
    </g>
</svg>